<svg width="147" height="284" viewBox="0 0 147 284" fill="none" xmlns="http://www.w3.org/2000/svg">
<path d="M116.554 167.651C118.286 167.651 120.007 167.435 121.739 167.395C123.079 167.363 125.491 167.843 126.593 167.108" stroke="black" stroke-width="2.80852" stroke-linecap="round"/>
<path d="M86.3639 67.7816C76.6772 67.7816 65.4088 71.0611 59.848 79.6407C56.4822 84.8335 67.4515 87.263 70.7466 87.324C78.7863 87.4729 86.8419 87.324 94.8824 87.324C98.7571 87.324 101.501 87.0658 101.397 82.3549C101.339 79.7829 97.5486 76.676 95.8845 75.1309C93.4285 72.8503 90.8893 70.5915 88.2429 68.5332C87.6714 68.0887 86.6353 67.9486 86.3639 67.4058" stroke="black" stroke-width="2.80852" stroke-linecap="round"/>
<path d="M80.7253 74.9211V82.4375" stroke="black" stroke-width="2.80852" stroke-linecap="round"/>
<path d="M86.7397 75.297C86.7397 77.6813 87.1155 80.044 87.1155 82.4375" stroke="black" stroke-width="2.80852" stroke-linecap="round"/>
<path d="M87.8671 104.61C85.2251 104.463 83.62 101.565 81.1024 100.936C79.5206 100.54 76.6295 100.587 75.0893 101.082C71.8189 102.133 69.5052 105.086 67.573 107.7C65.9738 109.864 66.4456 113.183 66.4456 115.718C66.4456 119.03 66.4456 122.343 66.4456 125.656C66.4456 127.516 66.5931 129.445 66.362 131.293C66.1074 133.33 65.371 135.132 65.3181 137.223C65.2478 139.999 63.9243 143.386 62.8753 145.95C62.4128 147.08 62.3694 148.284 61.9358 149.416C60.9576 151.97 59.5125 154.3 58.3446 156.765C54.6355 164.595 50.9473 172.778 50.2855 181.548C49.3014 194.587 47.6147 207.854 52.1645 220.529C52.668 221.931 53.9217 226.632 55.3799 227.147C57.4683 227.884 58.6239 231.478 60.7248 228.546C65.8475 221.398 63.439 211.864 63.439 203.659C63.439 200.89 63.4134 198.13 64.0236 195.412C64.3825 193.813 65.2037 192.395 65.3181 190.756C65.4094 189.448 67.2001 186.115 68.3873 188.292C72.4661 195.77 72.1512 203.986 73.5025 212.094C74.2984 216.869 76.0548 221.265 77.3025 225.915C77.7501 227.584 77.9498 230.777 79.0563 232.2C79.8825 233.262 82.0405 232.6 83.065 232.304C86.7656 231.236 88.8652 227.99 89.9967 224.454C91.3085 220.354 91.2671 215.107 90.5395 210.883C89.5555 205.17 87.9456 199.242 86.2803 193.679C82.0518 179.552 82.7695 163.984 84.0254 149.416C84.0771 148.816 84.0951 142.988 84.8605 142.943C88.2889 142.742 90.6242 146.007 92.523 148.539C94.0916 150.63 95.0712 152.71 97.8888 152.255C100.477 151.838 103.121 150.713 104.988 148.936C108.787 145.317 110.127 138.535 109.205 133.465C108.797 131.219 109.199 129.86 111.168 128.328C113.109 126.818 115.488 127.442 117.557 126.408" stroke="black" stroke-width="2.80852" stroke-linecap="round"/>
<path d="M90.7105 116.657C90.7105 122.81 93.3527 129.109 99.5379 128.88C105.828 128.647 102.983 122.614 106.871 119.373C110.683 116.197 122.546 120.324 127.378 120.324" stroke="black" stroke-width="2.80852" stroke-linecap="round"/>
<path d="M122.458 128.247C123.559 128.247 125.636 128.339 126.498 127.584C126.878 127.251 127.063 127.517 127.071 127.946C127.105 129.763 127.071 131.585 127.071 133.403" stroke="black" stroke-width="2.80852" stroke-linecap="round"/>
<path d="M122.186 128.792C122.186 130.569 121.832 132.701 122.216 134.43C122.356 135.057 125.778 134.883 126.527 135.033" stroke="black" stroke-width="2.80852" stroke-linecap="round"/>
<path d="M123.814 135.847C120.028 135.847 116.759 138.037 116.759 142.087" stroke="black" stroke-width="2.80852" stroke-linecap="round"/>
<path d="M125.443 136.117C125.992 134.654 129.128 137.659 129.513 138.409C130.32 139.981 130.614 142.637 132.226 143.443" stroke="black" stroke-width="2.80852" stroke-linecap="round"/>
<path d="M114.862 145.342C115.169 144.116 120.627 144.56 121.314 144.588C123.86 144.694 126.252 145.102 128.715 145.704C129.166 145.814 129.595 145.885 130.057 145.885" stroke="black" stroke-width="2.80852" stroke-linecap="round"/>
<path d="M117.845 146.699C115.649 153.559 116.134 160.314 117.302 167.32" stroke="black" stroke-width="2.80852" stroke-linecap="round"/>
<path d="M130.869 147.242C130.869 151.436 130.598 155.629 130.598 159.829C130.598 162.264 130.924 164.932 130.326 167.321" stroke="black" stroke-width="2.80852" stroke-linecap="round"/>
</svg>
