<svg width="50" height="50" viewBox="0 0 50 50" fill="none" xmlns="http://www.w3.org/2000/svg">
<g filter="url(#filter0_dd_4242_88)">
<path d="M35.6247 0H14.376C11.625 0.00295309 8.98754 1.09708 7.04231 3.04231C5.09708 4.98754 4.00295 7.625 4 10.376V31.624C4.00295 34.375 5.09708 37.0125 7.04231 38.9577C8.98754 40.9029 11.625 41.997 14.376 42H35.6247C38.3756 41.997 41.013 40.9029 42.9581 38.9576C44.9032 37.0124 45.9972 34.3749 46 31.624V10.376C45.9972 7.62506 44.9032 4.9876 42.9581 3.04235C41.013 1.0971 38.3756 0.00295339 35.6247 0ZM42.0133 31.624C42.0114 33.3179 41.3377 34.9419 40.1401 36.1398C38.9424 37.3377 37.3186 38.0117 35.6247 38.0139H14.376C12.682 38.0119 11.0579 37.3379 9.86016 36.14C8.66237 34.9421 7.98863 33.318 7.98672 31.624V10.376C7.98863 8.68196 8.66237 7.05787 9.86016 5.85996C11.0579 4.66206 12.682 3.98815 14.376 3.98606H35.6247C37.3186 3.98832 38.9424 4.66231 40.1401 5.8602C41.3377 7.05808 42.0114 8.68207 42.0133 10.376V31.624Z" fill="black"/>
<path d="M24.023 12.6985C22.1878 12.6986 20.3938 13.2429 18.868 14.2626C17.3421 15.2823 16.1529 16.7315 15.4507 18.427C14.7484 20.1226 14.5648 21.9883 14.9229 23.7882C15.281 25.5881 16.1648 27.2414 17.4625 28.5391C18.7602 29.8367 20.4136 30.7204 22.2135 31.0784C24.0135 31.4364 25.8792 31.2526 27.5747 30.5502C29.2702 29.8479 30.7193 28.6586 31.7389 27.1327C32.7585 25.6067 33.3026 23.8128 33.3026 21.9776C33.2999 19.5173 32.3213 17.1587 30.5816 15.4191C28.8419 13.6795 26.4832 12.7011 24.023 12.6985ZM24.023 27.5584C22.9192 27.5583 21.8403 27.2309 20.9226 26.6176C20.0049 26.0043 19.2897 25.1326 18.8674 24.1128C18.4451 23.0931 18.3346 21.971 18.5501 20.8884C18.7655 19.8059 19.297 18.8115 20.0775 18.0311C20.8581 17.2507 21.8525 16.7192 22.935 16.5039C24.0176 16.2886 25.1397 16.3992 26.1594 16.8216C27.1791 17.244 28.0507 17.9593 28.6639 18.8771C29.2771 19.7948 29.6044 20.8738 29.6044 21.9776C29.603 23.4573 29.0144 24.8761 27.968 25.9224C26.9216 26.9687 25.5028 27.5571 24.023 27.5584Z" fill="black"/>
<path d="M34.7684 8.79102C34.2854 8.7909 33.8132 8.93401 33.4116 9.20225C33.01 9.47049 32.6969 9.85182 32.512 10.298C32.3271 10.7442 32.2786 11.2352 32.3728 11.7089C32.4669 12.1826 32.6994 12.6178 33.0409 12.9593C33.3824 13.3009 33.8175 13.5335 34.2912 13.6278C34.7649 13.722 35.2559 13.6737 35.7021 13.4889C36.1483 13.3041 36.5297 12.9911 36.7981 12.5896C37.0664 12.188 37.2096 11.7159 37.2096 11.2329C37.2096 10.5854 36.9525 9.96435 36.4947 9.50643C36.0369 9.04851 35.4159 8.79117 34.7684 8.79102Z" fill="black"/>
</g>
<defs>
<filter id="filter0_dd_4242_88" x="4.76837e-07" y="0" width="50" height="50" filterUnits="userSpaceOnUse" color-interpolation-filters="sRGB">
<feFlood flood-opacity="0" result="BackgroundImageFix"/>
<feColorMatrix in="SourceAlpha" type="matrix" values="0 0 0 0 0 0 0 0 0 0 0 0 0 0 0 0 0 0 127 0" result="hardAlpha"/>
<feOffset dy="4"/>
<feGaussianBlur stdDeviation="2"/>
<feComposite in2="hardAlpha" operator="out"/>
<feColorMatrix type="matrix" values="0 0 0 0 0 0 0 0 0 0 0 0 0 0 0 0 0 0 0.25 0"/>
<feBlend mode="normal" in2="BackgroundImageFix" result="effect1_dropShadow_4242_88"/>
<feColorMatrix in="SourceAlpha" type="matrix" values="0 0 0 0 0 0 0 0 0 0 0 0 0 0 0 0 0 0 127 0" result="hardAlpha"/>
<feOffset dy="4"/>
<feGaussianBlur stdDeviation="2"/>
<feComposite in2="hardAlpha" operator="out"/>
<feColorMatrix type="matrix" values="0 0 0 0 0 0 0 0 0 0 0 0 0 0 0 0 0 0 0.25 0"/>
<feBlend mode="normal" in2="effect1_dropShadow_4242_88" result="effect2_dropShadow_4242_88"/>
<feBlend mode="normal" in="SourceGraphic" in2="effect2_dropShadow_4242_88" result="shape"/>
</filter>
</defs>
</svg>
