<svg width="42" height="42" viewBox="0 0 42 42" fill="none" xmlns="http://www.w3.org/2000/svg">
<path d="M31.6247 0H10.376C7.625 0.00295309 4.98754 1.09708 3.04231 3.04231C1.09708 4.98754 0.00295309 7.625 0 10.376V31.624C0.00295309 34.375 1.09708 37.0125 3.04231 38.9577C4.98754 40.9029 7.625 41.997 10.376 42H31.6247C34.3756 41.997 37.013 40.9029 38.9581 38.9576C40.9032 37.0124 41.9972 34.3749 42 31.624V10.376C41.9972 7.62506 40.9032 4.9876 38.9581 3.04235C37.013 1.0971 34.3756 0.00295339 31.6247 0ZM38.0133 31.624C38.0114 33.3179 37.3377 34.9419 36.1401 36.1398C34.9424 37.3377 33.3186 38.0117 31.6247 38.0139H10.376C8.68196 38.0119 7.05794 37.3379 5.86016 36.14C4.66237 34.9421 3.98863 33.318 3.98672 31.624V10.376C3.98863 8.68196 4.66237 7.05787 5.86016 5.85996C7.05794 4.66206 8.68196 3.98815 10.376 3.98606H31.6247C33.3186 3.98832 34.9424 4.66231 36.1401 5.8602C37.3377 7.05808 38.0114 8.68207 38.0133 10.376V31.624Z" fill="#262525"/>
<path d="M20.023 12.6985C18.1878 12.6986 16.3938 13.2429 14.868 14.2626C13.3421 15.2823 12.1529 16.7315 11.4507 18.427C10.7484 20.1226 10.5648 21.9883 10.9229 23.7882C11.281 25.5881 12.1648 27.2414 13.4625 28.5391C14.7602 29.8367 16.4136 30.7204 18.2135 31.0784C20.0135 31.4364 21.8792 31.2526 23.5747 30.5502C25.2702 29.8479 26.7193 28.6586 27.7389 27.1327C28.7585 25.6067 29.3026 23.8128 29.3026 21.9776C29.2999 19.5173 28.3213 17.1587 26.5816 15.4191C24.8419 13.6795 22.4832 12.7011 20.023 12.6985ZM20.023 27.5584C18.9192 27.5583 17.8403 27.2309 16.9226 26.6176C16.0049 26.0043 15.2897 25.1326 14.8674 24.1128C14.4451 23.0931 14.3346 21.971 14.5501 20.8884C14.7655 19.8059 15.297 18.8115 16.0775 18.0311C16.8581 17.2507 17.8525 16.7192 18.935 16.5039C20.0176 16.2886 21.1397 16.3992 22.1594 16.8216C23.1791 17.244 24.0507 17.9593 24.6639 18.8771C25.2771 19.7948 25.6044 20.8738 25.6044 21.9776C25.603 23.4573 25.0144 24.8761 23.968 25.9224C22.9216 26.9687 21.5028 27.5571 20.023 27.5584Z" fill="#262525"/>
<path d="M30.7684 8.79102C30.2854 8.7909 29.8132 8.93401 29.4116 9.20225C29.0099 9.47049 28.6969 9.85182 28.5119 10.298C28.327 10.7442 28.2786 11.2352 28.3727 11.7089C28.4669 12.1826 28.6994 12.6178 29.0409 12.9593C29.3824 13.3009 29.8175 13.5335 30.2912 13.6278C30.7648 13.722 31.2559 13.6737 31.7021 13.4889C32.1483 13.3041 32.5297 12.9911 32.798 12.5896C33.0664 12.188 33.2096 11.7159 33.2096 11.2329C33.2096 10.5854 32.9524 9.96435 32.4946 9.50643C32.0368 9.04851 31.4159 8.79117 30.7684 8.79102Z" fill="#262525"/>
</svg>
